# xmcd CD database file
#
# Track frame offsets:
#	150
#	13552
#	34941
#	49841
#	73661
#	109254
#	131657
#	142605
#	166878
#	186861
#	198942
#	211142
#
# Disc length: 2985 seconds
#
# Revision: 1
# Processed by: cddbd v1.5.2PL0 Copyright (c) Steve Scherf et al.
# Submitted via: CDex 1.51
#
DISCID=a40ba70c
DTITLE=Illinois Speed Press - Duet - CD 1
DYEAR=2003
DGENRE=Rock
TTITLE0=Get in the Wind
TTITLE1=Hard Luck Story
TTITLE2=Here Today
TTITLE3=Pay the Price
TTITLE4=P.N.S. (Paul's New Song) - When You Come Around
TTITLE5=Be a Woman
TTITLE6=Sky Song
TTITLE7=Beauty
TTITLE8=Free Ride
TTITLE9=Right on Time
TTITLE10=Night People
TTITLE11=G.I.T.W Pt. 2
EXTD=YEAR: 2003
EXTT0=
EXTT1=
EXTT2=
EXTT3=
EXTT4=
EXTT5=
EXTT6=
EXTT7=
EXTT8=
EXTT9=
EXTT10=
EXTT11=
PLAYORDER=
